<?xml version="1.0" standalone="no"?>
<!DOCTYPE svg PUBLIC "-//W3C//DTD SVG 20010904//EN"
 "http://www.w3.org/TR/2001/REC-SVG-20010904/DTD/svg10.dtd">
<svg version="1.0" xmlns="http://www.w3.org/2000/svg"
 width="820.000000pt" height="820.000000pt" viewBox="0 0 820.000000 820.000000"
 preserveAspectRatio="xMidYMid meet">
<metadata>
Created by potrace 1.11, written by Peter Selinger 2001-2013
</metadata>
<g transform="translate(0.000000,820.000000) scale(0.100000,-0.100000)"
fill="#000000" stroke="none">
<path d="M4007 8064 c-1 -1 -63 -4 -137 -8 -74 -3 -144 -8 -155 -10 -12 -2
-50 -7 -85 -11 -294 -30 -722 -138 -985 -249 -16 -7 -66 -28 -110 -47 -106
-45 -319 -153 -441 -225 -743 -435 -1349 -1134 -1662 -1919 -80 -200 -163
-460 -193 -600 -7 -33 -14 -64 -15 -70 -8 -30 -54 -299 -59 -350 -4 -33 -8
-71 -11 -85 -21 -138 -21 -653 2 -805 2 -16 11 -79 19 -140 20 -148 28 -195
44 -265 5 -25 12 -56 15 -70 17 -87 90 -335 139 -475 64 -181 197 -467 298
-640 204 -351 496 -707 794 -970 44 -38 89 -78 100 -88 65 -60 355 -270 389
-283 10 -4 18 14 31 73 52 238 158 553 295 873 34 80 159 341 277 580 289 582
314 638 349 774 30 114 25 180 -18 242 -35 51 -100 74 -222 79 -121 5 -221 13
-256 20 -105 21 -141 30 -215 55 -217 73 -425 221 -577 409 -168 209 -306 490
-378 772 -26 99 -25 120 4 177 37 70 91 124 190 187 109 70 164 127 235 242
424 685 640 920 939 1022 80 27 250 61 297 60 11 0 48 0 82 1 l62 2 322 414
c177 228 326 414 330 414 6 0 129 -242 129 -254 0 -2 15 -37 34 -78 32 -68
274 -641 325 -770 19 -47 36 -68 90 -112 62 -51 198 -193 230 -240 8 -11 18
-23 21 -26 14 -10 108 -148 157 -230 285 -474 495 -1215 578 -2040 6 -68 15
-144 20 -190 2 -19 7 -78 10 -130 3 -52 8 -117 10 -145 20 -255 28 -1250 12
-1560 -10 -201 -21 -380 -32 -522 -4 -65 -3 -71 13 -68 109 21 350 93 477 142
87 34 244 104 275 123 8 6 42 24 75 41 221 116 413 297 488 460 113 245 17
548 -341 1083 -70 104 -145 216 -168 250 -290 435 -533 918 -595 1186 -6 25
-13 54 -15 65 -28 115 -37 199 -38 350 0 94 2 190 6 215 4 25 10 63 14 85 19
129 99 370 159 480 12 22 42 78 68 125 141 262 573 783 704 851 67 34 187 34
255 1 70 -35 131 -93 169 -164 31 -58 34 -70 34 -148 0 -103 -21 -154 -99
-235 -28 -29 -83 -87 -121 -127 -60 -63 -131 -143 -223 -252 -93 -110 -230
-352 -271 -476 -69 -212 -64 -455 14 -675 8 -22 22 -60 30 -85 68 -192 299
-601 643 -1140 147 -230 223 -354 275 -450 118 -216 195 -472 200 -663 l2 -78
23 28 c12 15 47 64 76 108 228 341 406 727 524 1140 46 159 104 458 117 600 3
39 8 81 10 95 20 140 21 568 1 735 -2 17 -7 59 -11 95 -10 100 -45 306 -67
400 -11 47 -21 92 -23 100 -19 92 -98 340 -150 474 -128 331 -308 654 -531
952 -46 62 -90 119 -97 126 -6 7 -34 40 -62 73 -130 157 -464 471 -636 598
-252 187 -627 400 -864 491 -38 15 -97 38 -130 51 -187 74 -521 165 -700 190
-22 3 -67 10 -100 15 -57 9 -106 15 -185 25 -97 12 -493 27 -503 19z"/>
</g>
</svg>
