<?xml version="1.0" ?><svg enable-background="new 0 0 515.91 728.5" height="512" id="Layer_1" version="1.1" viewBox="0 0 512.00003 512" width="512" xml:space="preserve" xmlns="http://www.w3.org/2000/svg" xmlns:cc="http://creativecommons.org/ns#" xmlns:dc="http://purl.org/dc/elements/1.1/" xmlns:inkscape="http://www.inkscape.org/namespaces/inkscape" xmlns:rdf="http://www.w3.org/1999/02/22-rdf-syntax-ns#" xmlns:sodipodi="http://sodipodi.sourceforge.net/DTD/sodipodi-0.dtd" xmlns:svg="http://www.w3.org/2000/svg"><defs id="defs7"/><g id="g4155" transform="translate(136.1786,108.25001)"><path d="m -733.62329,72.267944 c 0,203.804876 -165.21649,369.021366 -369.02141,369.021366 -203.8048,0 -369.0213,-165.21649 -369.0213,-369.021366 0,-203.804874 165.2165,-369.021364 369.0213,-369.021364 203.80492,0 369.02141,165.21649 369.02141,369.021364 z" id="path4950" style="fill:#282828;fill-opacity:1;fill-rule:nonzero;stroke:none" transform="matrix(0.69372682,0,0,0.69372682,884.75558,97.615782)"/><path d="m 24.159119,12.921262 c -10.70602,0.12834 -23.32017032,1.63505 -35.83091,8.38896 -14.29801,7.71865 -24.05637,15.92673 -32.349289,31.03338 -8.29292,15.10719 -9.53385,27.43606 -8.19698,45.72764 1.33686,18.291498 6.98463,31.901178 17.846939,45.288998 10.8623,13.38774 21.71187,19.93479 41.2864497,22.37035 l 4.1122003,-18.17595 -7.3471203,10.5546 0.1919,-11.73348 -6.66176,8.25186 -2.90595,-11.21264 -5.4006797,8.992 -2.68664,-12.50107 -7.81318,6.30545 2.46732,-10.3079 -10.33531,1.15133 4.77014,-7.18255 -9.43064,0.10965 5.48293,-9.56775 -8.361478,-1.31591 6.661768,-8.71785 -10.225668,-3.04307 8.471138,-8.114738 -8.388898,-6.82621 6.552108,-5.07166 -6.113468,-8.14219 6.524688,-7.62127 -2.4399,-10.03378 5.56517,-4.82497 1.64488,-11.4867 6.22313,-3.12535 5.34585,-8.93709 9.8966897,-1.06921 4.87981,-8.05991 9.95151,0.52083 9.3757903,-5.09903 9.75956,2.24791 11.0482,-3.31713 8.1969,1.91903 10.6917,1.56267 10.3354,8.25177 -15.8456,-5.53775 -7.9503,3.83804 -6.607,-4.02991 -4.5234,3.07045 -8.0325,0.82235 -7.18258,-0.46601 -5.23621,6.38757 -10.69171032,0.10966 -3.83805998,8.63566 -9.4854597,3.34458 -0.90469,9.89674 -6.79883,5.3458 2.248,9.321 -5.86673,9.70477 4.496,8.47109 -4.44117,7.75839 5.92156,3.865418 -1.34332,12.47371 8.22439,2.05614 1.8641997,9.26607 8.96458998,-0.93201 5.56518002,6.33273 6.8810703,-6.71663 c 12.54577,-6.25571 17.69207,-9.7668 27.46947,-20.34157 11.1301,-12.038498 17.5237,-23.174808 32.3493,-31.417278 10.6332,-5.91191 19.3082,-8.04035 31.252701,-5.97631 11.2147,1.93728 14.9607,8.67671 23.22021,15.76338 0.8755,-1.58496 1.0522,-2.01324 2.4947,-3.1801 -0.4528,2.05808 -1.1602,4.18887 -1.3433,6.16834 -0.3065,3.32739 0.243,8.53047 0.9321,11.78821 0.8256,3.89981 1.633,5.929728 4.7975,8.279318 5.7952,4.30203 9.496,3.59136 13.9541,6.08596 2.1212,1.18721 4.8084,3.16028 5.5927,5.26361 0.7842,2.10343 -0.5299,4.39328 -2.1384,5.29107 2.8135,0.41872 5.977,-2.74725 4.6605,-6.00376 -0.6485,-1.60268 -3.7415,-2.33073 -4.688,-3.94771 -0.9443,-1.61645 -0.9384,-3.26519 -0.4934,-4.90726 0.804,-2.95991 6.6486,-5.66541 8.7178,-8.005088 3.1844,-3.60049 4.408,-6.60329 2.6045,-11.24 -2.5327,-6.51372 -12.3199,-11.75417 -18.176,-14.31045 -2.6815,-1.17019 -4.1863,-1.23738 -6.2779,-1.86419 4.2823,2.50969 8.7994,4.50592 10.9659,10.11596 1.8087,4.68523 0.2411,6.44766 0.3015,10.52722 0.028,1.89139 2.5403,2.83489 3.6462,4.03 0.9627,1.03886 0.8788,1.80094 0.1096,3.23492 -0.085,-1.29353 -0.6518,-2.25791 -1.6448,-2.96078 -1.6395,-1.16229 -3.4032,-0.90674 -4.2768,-3.28975 -1.3257,-3.62277 1.3111,-7.03526 -1.6448,-11.10298 -2.2111,-3.04316 -5.1618,-6.46275 -9.1292,-6.55206 -1.8775,-0.0429 -3.2853,0.22914 -5.291,0.82244 l -2.6592,-3.20746 -0.083,-0.0274 c -5.4387,-4.9635 -9.14831,-9.06227 -16.77781,-12.47363 -7.6294,-3.41073 -11.374601,-3.92271 -20.122301,-3.72839 -8.7478,0.19361 -17.4473,0.91262 -27.5791,9.64996 -0.6333,0.54602 -1.3343,1.19292 -2.0836,1.91894 -0.01,0.009 -0.019,0.0192 -0.027,0.0274 -11.2495,10.91077 -34.5318,40.527188 -40.464,44.493938 -6.33189,4.23448 -7.74148,5.67286 -15.6537603,5.67488 -7.91227,0 -20.2417697,-11.20711 -20.7254697,-25.194118 -0.48434,-13.98761 -0.67614,-18.95321 9.0468397,-35.80344 9.72363,-16.85102 27.3396903,-22.02155 40.4091903,-23.76855 13.0701,-1.74708 20.8994,2.85692 30.5673,2.8785 9.6672,0.022 19.224,-1.65988 22.0414,-9.34835 -1.3789,0.82103 -3.2211,1.75278 -8.4163,1.48039 -5.1951,-0.27239 -12.4029,-6.27765 -20.5061,-10.30791 -8.1033,-4.02964 -17.11,-4.49679 -28.6757,-4.71532 -1.4458,-0.0273 -2.9392,-0.0457 -4.4687,-0.0274 z m 194.863311,1.6998 c -0.8465,-0.005 -1.6874,0.0159 -2.5221,0.0273 -7.3951,0.10114 -12.3564,1.51741 -16.7778,3.12526 -7.7317,2.81156 -13.9069,8.94946 -21.7672,11.98025 -2.5635,0.98771 -4.6156,1.02333 -6.6344,-0.0549 1.9769,3.95491 4.1168,5.71594 9.0469,7.15528 3.5663,1.04087 12.0711,0.37625 17.9292,-0.16449 6.2885,-0.58084 9.5897,-2.44776 18.1485,-2.33021 8.3586,0.11484 14.9657,3.30257 18.5871,5.37327 7.4719,4.27248 12.8349,8.99552 17.4906,16.50353 2.5569,4.12282 4.3587,8.79586 5.62,13.54294 1.2613,4.74698 1.8108,10.04701 1.8916,14.69425 0.081,4.64706 -0.2889,8.81251 -1.4256,12.99445 -2.6586,9.790678 -8.5128,19.742318 -20.5609,18.203328 -7.3728,-0.94236 -18.4834,-14.77118 -22.206,-19.848208 -7.5112,-10.24668 -15.2624,-21.59555 -24.7005,-30.12865 -3.2369,-2.92561 -7.1445,-5.34118 -11.3223,-7.01816 -0.053,-0.0217 -0.1105,-0.0334 -0.1645,-0.0548 l -3.7284,-1.26108 c -0.1201,-0.0336 -0.236,-0.0772 -0.3563,-0.10966 -1.9166,-0.51645 -3.8503,-0.86472 -5.7846,-1.04175 -14.5152,-1.32837 -18.8189,1.41187 -29.7448,10.41757 2.2229,0.70874 4.3837,1.11194 6.6617,2.13834 5.0554,2.278 9.6744,5.21563 13.7073,8.992 4.2259,3.95807 6.1278,6.47689 6.278,12.14465 0.1,3.76392 -3.0009,6.77102 -5.8394,9.48555 -1.7364,1.662348 -4.0216,3.178268 -5.428,4.468548 -1.8639,1.71226 -4.1785,3.60523 -1.8368,6.33274 0.8808,1.02509 2.4114,1.78402 3.7009,2.74147 2.047,1.51934 1.1067,7.16535 -1.59,8.66303 -3.4507,1.91437 -7.5719,1.71295 -10.4176,-0.84981 3.5919,-0.5375 5.8777,-1.00957 5.7846,-3.94771 -0.053,-1.70313 -2.2339,-3.14351 -4.359,-4.1122 -5.1249,-2.33643 -8.9904,-1.97736 -14.0912,-5.64741 -5.1518,-3.70865 -5.269,-5.74638 -6.6617,-11.568988 -2.4841,0.25984 -4.7658,0.32555 -8.08731,1.42556 -3.3215,1.09921 -6.9907,3.711198 -10.0064,4.358978 -7.5946,1.63418 -9.112301,1.15835 -13.268601,0.0822 -7.3177,-1.894038 -16.8256,1.33143 -26.2907,4.35888 -1.5737,0.50338 -7.9419,0.0321 -12.227,1.53522 -6.6179,2.32196 -15.9104,7.92964 -21.2737,12.44634 -8.1261,6.84437 -18.8037,27.34315 -24.8376603,50.85412 -0.63399,7.14702 1.4043203,11.97103 -3.09785,15.46186 -4.50218,3.49083 -4.39502,12.43265 -5.92157002,14.94102 -1.52653,2.50768 -3.29345998,1.38486 -6.57950998,4.90719 -3.28606,3.52232 -4.9624997,2.93508 -4.8798097,9.59512 2.8318997,-1.86192 6.9841197,-4.0364 10.60946968,-4.16702 3.21059002,-0.11616 3.21890002,4.11658 11.45932032,-4.03 4.40699,-4.35845 12.87721,-4.49276 18.75161,-6.41494 5.8751,-1.92227 16.4827,-5.88331 27.0856,-17.73732 10.6032,-11.85392 15.6538,-24.31412 17.7099,-42.35558 0.3276,3.1986 0.9037,6.80243 -0.466,15.62626 -1.3696,8.82391 -4.3274,18.72381 1.8916,30.59474 l 3.8928,7.40204 c -2.3068,-3.14834 -6.8129,-8.29334 -8.1696,-11.95278 l -3.1252,-8.44371 c -7.0006,10.99147 -8.6154,12.96032 -18.3403,20.83513 -0.3873,4.88533 -0.5002,9.99208 1.0966,14.66679 1.4261,4.17475 -0.4481,8.90278 0,12.06244 l 0.3838,1.26107 c 1.2581,2.78515 3.9294,1.20704 4.8249,4.24932 0.9175,3.11667 -0.4633,9.27116 0.9595,12.30914 1.4228,3.03798 4.9151,1.21203 6.607,2.19317 1.6918,0.98184 2.2476,2.32783 3.1527,3.61874 0.9043,1.29028 -0.36,4.3281 1.4803,5.31845 1.8397,0.99104 4.6926,0.17299 6.607,1.12404 1.9144,0.95096 2.2132,3.21518 1.7546,5.26361 -0.4595,2.04825 -2.501,2.9892 -3.3995,5.07166 -0.8978,2.08308 -0.8048,3.54303 0.2742,5.45556 1.0789,1.91315 3.4857,2.95491 5.8667,3.92026 2.3809,0.96543 5.7124,0.41968 8.1695,1.75453 2.4572,1.33494 4.679,4.01561 5.9765,5.94902 1.2974,1.93272 1.6563,3.28599 1.59,5.31835 -0.066,2.03193 -0.889,4.36986 -1.9739,6.33283 -1.0848,1.96298 -3.4902,4.36597 0.2467,8.11473 3.7371,3.74808 3.589,2.11917 5.729801,4.55081 -0.233101,-4.20624 -1.956001,-7.63476 -0.685501,-10.80134 1.271301,-3.16659 5.088901,-3.70243 7.100501,-5.12659 2.0115,-1.42467 3.1571,-3.38107 4.7426,-5.07166 -0.022,2.17563 0.22,4.50276 -0.028,6.14088 -0.504,3.33073 -1.4818,6.29193 3.4817,6.82617 2.236,0.2402 4.3637,-1.2132 6.71661,-2.08348 -1.2326,2.20724 -3.37881,3.99288 -3.70111,6.63437 -0.3222,2.64037 0.063,5.52155 1.8917,8.14208 1.82921,2.61933 4.97821,4.57375 7.29231,6.11357 2.3134,1.54017 3.5679,1.66178 5.3458,2.4947 0.088,2.59621 -0.433,5.34034 -0.137,7.7857 0.2959,2.44544 1.0537,4.61299 2.4673,6.63434 1.3903,1.9866 3.6259,3.14804 5.7297,4.60567 l 0.054,-0.0276 c -1.1872,-2.68755 -3.5134,-5.25832 -3.4816,-8.0874 0.033,-2.8673 0.9038,-4.88486 3.7009,-7.4294 2.7972,-2.54498 9.3585,-4.76307 12.4462,-7.23741 3.0879,-2.47477 4.0729,-3.98484 5.1815,-6.38759 1.1085,-2.40266 0.8095,-6.28383 1.0143,-8.4437 1.0166,3.02548 1.1502,3.9625 1.4804,7.12779 0.332,3.16597 -1.8475,7.60785 -2.7689,9.95152 3.8197,-1.84498 6.2602,-4.79421 7.4842,-7.67608 0.8191,0.48559 0.3841,1.82014 0.6854,4.38633 1.3611,-1.35464 2.9063,-2.39499 4.2767,-3.67364 1.3715,-1.27702 2.8832,-2.41112 3.5638,-4.19434 0.6794,-1.78313 0.3965,-3.65786 -0.1096,-5.72959 -0.506,-2.07198 -2.8104,-4.47778 -4.0573,-6.74411 -1.2457,-2.26546 0.2217,-4.50723 0.137,-7.23747 -2.4945,-0.42846 -4.6169,-1.67383 -7.4842,-1.26099 -2.8686,0.41215 -6.1426,3.60874 -9.0742,3.64611 -2.9318,0.0377 -4.5874,-2.69953 -6.9908,-3.45424 -2.4033,-0.75472 -4.8483,-0.67831 -7.2649,-1.01439 3.0609,-2.93227 14.957,-4.3223 23.0832,-5.64733 7.1503,-1.16633 14.2483,-1.84481 21.493,-1.94649 3.2355,-0.0456 7.3761,1.02957 9.6226,0.38382 2.2484,-0.64445 1.773,-2.16914 2.4398,-3.83806 1.8652,-4.66496 0.9603,-8.8176 -0.054,-13.51546 -6.5038,-0.76261 -13.2951,-1.70954 -19.8482,-1.20625 -6.4067,0.49224 -13.9801,3.54979 -20.5883,3.75585 -5.7453,0.17844 -14.257,-1.105 -19.1903,-4.1122 -6.0287,-3.67452 -10.7082,-11.55714 -12.364,-14.09113 -2.6967,-4.12737 -6.09961,-12.22571 -8.16961,-15.92796 -2.0687,-3.70216 -2.5004,-4.7598 -4.2219,-6.30528 -1.7214,-1.54496 -4.1018,-1.6619 -6.1409,-2.49478 2.3509,0.2402 4.9375,-0.48442 7.073,0.74024 3.2087,1.84086 6.8037,9.45502 8.80021,12.77514 2.1153,-7.09053 1.6103,-9.87366 7.7309,-13.87172 -4.9327,5.52863 -5.0483,9.72039 -6.2505,16.22946 4.1018,6.73217 9.8091,17.44828 17.2712,20.42389 2.6954,1.07571 7.3117,1.75059 10.2256,2.11088 9.0687,1.1229 17.8228,-1.74848 26.7293,-3.94771 6.5104,-1.60795 13.1089,-0.95867 21.027,-0.49337 2.6882,0.15747 9.0228,-1.44802 10.3354,-4.16704 0.7088,-1.46688 0.6615,-3.23431 -0.3564,-4.7976 -1.0192,-1.56329 -3.7264,-2.32134 -5.1814,-3.7284 -1.455,-1.40713 -2.3084,-3.09412 -3.4542,-4.63303 -6.0479,1.16028 -11.0277,1.60497 -15.5167,1.72708 3.2196,-1.32643 6.3264,-2.06131 9.6773,-3.37196 3.3511,-1.31065 7.1646,-3.47864 9.8693,-5.26361 2.7045,-1.78577 4.4306,-2.82946 6.3877,-4.90727 1.9556,-2.07913 4.4522,-4.2029 5.894,-6.744 1.4432,-2.54119 1.6739,-5.381 1.7546,-8.52591 0.059,-2.28371 -0.021,-5.233 -0.5208,-7.64874 l -0.5209,-1.83682 c -0.079,-0.20659 -0.1297,-0.41573 -0.2193,-0.60303 -1.2116,-2.53259 -3.5511,-3.32117 -5.4282,-3.92034 -1.8776,-0.59918 -3.1741,0.9192 -5.1264,1.12396 -1.9539,0.20484 -3.7824,1.4381 -6.6071,0.10966 -2.8246,-1.32837 -6.1631,-4.01921 -9.0195,-8.03246 -2.8547,-4.01385 -4.9023,-10.57942 -7.8131,-15.62634 -5.0173,-8.69979 -11.2642,-16.83128 -17.2437,-24.8925 -0.4922,-1.98788 -1.2343,-4.7326 -1.4804,-7.42933 -0.4292,-4.699 -0.5262,-9.59249 0.9321,-14.17341 1.1177,-3.50916 2.7679,-7.19641 6.4424,-8.63556 1.4701,-0.5762 3.3192,-0.81595 4.6331,-0.32898 1.3152,0.48627 2.6001,1.98674 2.0835,3.70093 -0.5677,1.8849 -1.8815,1.92701 -2.7689,2.87858 -1.5062,1.61452 -2.0902,2.78463 -2.6591,4.79752 1.6275,-0.0263 3.817,-0.13246 5.1539,0.21931 1.7444,0.45943 3.3638,1.61313 4.2492,4.08484 -2.0817,-1.84622 -3.104,-2.70331 -5.7022,-2.76893 -1.1905,-0.0298 -2.6305,0.40495 -3.9478,0.60312 -0.4921,1.60137 -0.7853,3.55838 -1.4804,4.79761 -0.6949,1.23897 -2.0415,0.93727 -2.5495,2.38503 -0.5079,1.44521 -0.5575,3.80226 -0.3016,5.70225 3.6149,-1.5397 6.7593,-2.76946 10.6918,-3.01561 1.5764,-0.0991 4.0278,0.14711 5.62,0.21931 1.3559,-1.99649 3.095,-3.58812 3.7283,-5.86673 0.4195,-1.51144 0.2214,-8.51407 -0.5208,-10.33537 -2.1625,-5.3001 -4.2886,-5.54468 -7.2649,-8.58074 -2.1598,-2.20185 -2.2327,-5.53635 -2.8786,-9.29361 -0.2368,-1.3802 -0.9159,-3.12667 -1.2336,-4.550738 -3.8905,-0.65559 -8.08,-0.88183 -12.5559,-0.65796 2.1704,-2.08184 4.2844,-3.97517 4.9072,-7.10044 0.6216,-3.12526 0.1043,-6.98472 -1.6722,-9.78698 -1.7766,-2.80243 -4.6053,-5.22843 -7.2101,-7.5117 -2.6061,-2.28309 -6.3586,-4.16334 -8.8275,-6.03122 3.2111,-1.14975 6.5043,-2.84455 9.6499,-3.45416 8.1945,-1.58961 15.2617,0.84148 23.1654,5.61996 4.5953,2.77945 8.3823,5.41582 13.1864,10.44493 4.8028,5.02851 10.7573,14.26834 15.4071,19.738558 4.6498,5.4703 8.4172,9.78698 12.4737,13.04937 4.0573,3.26308 7.7328,4.18247 11.5964,6.278 l 6.0038,6.38765 4.8797,-6.00385 7.8407,0.87727 1.6175,-8.80006 7.21,-1.97385 -1.1788,-11.870588 5.1814,-3.67357 -3.893,-7.37449 3.9477,-8.08737 -5.1539,-9.21132 1.9738,-8.88235 -5.9489,-5.07167 -0.7676,-9.43063 -8.3341,-3.18011 -3.3445,-8.22439 -9.3485,-0.0823 -4.5782,-6.11351 -6.3054,0.43863 -7.0181,-0.74015 -3.9751,-2.93332 -5.7572,3.81058 -6.9633,-3.61873 -13.8719,5.23615 9.0469,-7.84049 9.3485,-1.50786 7.1826,-1.80936 9.6775,3.1801 8.5259,-2.16571 8.2243,4.85234 8.6905,-0.466 4.2767,7.64864 8.663,1.01439 4.6604,8.5259 5.4556,2.96079 1.4529,10.91103 4.8524,4.60566 -2.1383,9.56768 5.7023,7.23746 -5.3459,7.73102 5.7297,4.85235 -7.3197,6.49723 7.4019,7.731018 -8.9371,2.87849 5.8119,8.27923 -7.2924,1.26107 4.7976,9.12903 -8.2518,-0.10966 4.1396,6.82629 -9.0468,-1.09658 2.1658,9.81445 -6.8263,-6.00386 -2.3576,11.89804 -4.7154,-8.55337 -2.5495,10.66426 -5.8119,-7.86805 0.1644,11.18517 -6.4424,-10.06113 c 1.3572,5.70058 1.0809,11.95174 4.825,17.32606 11.6006,-1.56988 19.185,-4.49723 28.0726,-13.04937 4.0473,-3.89446 8.4962,-9.90831 12.2543,-16.22947 0.054,-0.0918 0.1103,-0.18221 0.1645,-0.27415 l 3.6187,-6.71654 c 0.027,-0.0543 0.055,-0.11027 0.083,-0.16458 1.9332,-3.93972 3.458,-7.71952 4.2767,-10.9384 2.98941,-11.75416 3.08111,-33.377008 0.1371,-45.343828 -2.8338,-11.52187 -6.5235,-17.02568 -13.1043,-26.42772 -6.2899,-6.68041 -12.4681,-13.74084 -20.4513,-18.50493 -10.9863,-6.55574 -24.887,-8.63487 -37.5855,-8.71777 z m -34.3779,87.863898 c -1.6368,0.73314 -3.8784,1.53978 -4.2767,3.45425 -0.3984,1.91437 0.3651,4.73093 1.7545,6.16834 2.3253,2.40266 5.7732,5.0085 7.1278,8.82742 0.8703,2.45066 1.1379,10.65557 0.3838,12.88497 -0.7823,2.31467 -2.6007,3.7219 -4.1122,5.26362 0.7974,0.31432 1.101,0.38292 2.111,1.15133 1.01,0.76848 2.4074,1.53574 3.2074,3.37204 0.8014,1.83691 0.7464,4.68233 0.5757,5.83927 -0.7023,-0.20598 -1.6565,-0.0622 -2.385,-0.68531 -0.7266,-0.62287 -1.1516,-2.02799 -2.0836,-2.63181 -0.9332,-0.60313 -1.7104,-0.4725 -2.7414,-0.60313 0.5297,1.5068 0.7944,2.99255 0.5483,4.35888 -0.5342,2.98299 -2.2874,4.4954 -5.1265,4.85245 -1.2397,0.15554 -3.2252,-0.24239 -4.3042,-0.43864 0.5002,1.11703 1.3636,2.09044 1.8642,3.20756 2.4008,-0.34731 4.1647,-0.30099 5.4556,-0.90473 1.2909,-0.60382 2.675,-1.9492 4.3316,-2.52214 1.657,-0.57295 3.1492,-0.56707 4.9619,-0.84982 -1.4281,1.23055 -2.3844,2.47039 -3.8107,3.70094 1.0462,3.04061 2.1074,6.06175 3.1528,9.10166 2.2177,1.3874 4.2784,2.12509 7.0729,3.83805 2.7958,1.71356 6.1466,4.77085 9.7872,6.4424 3.6403,1.67172 5.8185,2.59987 9.6225,3.31722 3.8032,0.71734 6.8392,3.80339 10.582,4.30414 3.7428,0.50065 10.7133,0.58312 13.5977,0.30151 3.275,-0.31959 7.5409,-2.00201 7.9228,-5.59259 -2.7459,0.67726 -6.929,0.0676 -9.0467,-5.09912 -0.9399,-2.29441 -0.4806,-6.49828 -1.9191,-9.21132 -1.438,-2.71383 -3.4439,-3.59277 -5.8393,-6.93586 -2.3955,-3.3431 -6.3261,-8.62495 -8.526,-13.10429 -2.1987,-4.47845 -2.7183,-9.55696 -4.5782,-13.5702 -1.86,-4.01263 -4.6519,-7.24229 -6.8263,-10.33537 -4.7476,-6.75979 -8.5723,-11.39379 -16.3939,-14.80391 -3.7619,-1.64005 -8.0675,-2.05886 -12.0899,-3.09781 z m -85.835211,3.34459 c 0.2257,4.77909 0.1822,8.22413 -1.5353,12.72039 -1.9342,5.0607 -3.8866,8.04561 -9.3758,11.15772 -1.8915,1.07176 -3.7779,1.43889 -5.3459,2.00131 0.9143,-1.24695 2.2211,-1.8034 2.7415,-3.75585 0.5191,-1.95376 0.1299,-5.82901 0.2468,-7.48415 0.1168,-1.65453 0.2883,-1.60259 0.4385,-2.41249 -3.7835,-1.01202 -5.2933,1.44513 -7.5116,6.00385 -0.8302,1.70576 -0.014,2.71514 -0.9046,3.83805 -0.8893,1.12282 -2.3114,0.95035 -3.7559,2.0286 -1.4444,1.07763 -2.8711,3.16045 -4.2218,4.27668 -2.7716,2.29117 -6.5177,3.69462 -9.7322,5.23624 2.1953,-1.61969 6.435,-4.08903 7.8132,-6.44248 0.7311,-1.24756 0.6439,-3.59356 1.7819,-4.71532 1.1374,-1.12211 1.5194,-1.90701 2.9882,-2.19318 1.4689,-0.28607 0.897,-1.9913 1.3707,-3.34449 0.4739,-1.35327 1.4084,-2.3216 2.4125,-3.67365 1.0041,-1.35187 2.2667,-3.37503 4.2493,-4.11211 1.9827,-0.73761 5.0786,0.068 6.5795,-0.35643 1.5003,-0.4246 0.637,-1.51083 1.7272,-2.16572 1.0914,-0.65497 3.2028,-0.36889 4.6605,-1.06922 2.5838,-1.24238 3.8191,-3.31756 5.3733,-5.53775 z m 22.150911,5.94902 c 2.0844,1.1222 4.7113,2.58575 6.5521,2.63181 1.841,0.0455 2.344,-1.19774 3.4269,-1.91912 1.7038,5.55557 3.6513,11.65461 6.5521,16.69557 1.2154,2.11193 1.9819,1.13992 2.9059,3.2623 0.9228,2.12184 1.3451,6.44537 2.2207,9.15657 0.8768,2.71111 2.0055,4.69269 3.0155,7.04553 -2.5647,-3.63391 -5.8628,-8.27063 -7.2922,-11.29484 -1.4282,-3.0235 -0.516,-3.26107 -1.6724,-6.14088 -1.1563,-2.87981 -3.4891,-7.39116 -5.2362,-11.07551 -1.2509,0.16598 -2.8047,0.40301 -3.7558,0.10965 -0.9509,-0.29336 -0.7583,-1.29283 -1.6174,-1.94648 -0.8604,-0.65374 -2.3041,-0.40942 -3.5091,-1.45294 -1.205,-1.0428 -1.481,-3.17764 -1.5901,-5.07166 z m -5.04421,14.17333 c 1.0329,-0.006 1.957,0.0844 2.6592,0.27414 1.28241,0.34591 1.55261,0.85955 2.33031,1.9464 2.6736,3.73304 2.6508,6.97367 3.3445,11.32229 0.682,1.06255 1.4213,1.78252 1.9739,2.87859 0.5512,1.09588 0.8601,2.81208 1.0143,4.22176 -0.6996,-1.01465 -0.2825,-2.28757 -2.2206,-3.04298 -1.9393,-0.75533 -4.8989,-0.0539 -7.51161,0.21932 1.9046,1.37424 2.83321,2.68716 2.90591,5.59259 0.085,3.41134 -2.79621,5.8798 -5.81181,6.11342 -4.1865,0.32502 -6.3392,-0.58883 -8.0326,-4.16703 -0.7416,-1.56715 -0.2123,-3.46153 -0.2742,-4.98938 -5.0303,0.34968 -4.9315,0.19677 -8.608101,3.2623 1.9984,2.92771 3.249701,4.60855 6.552101,6.3602 1.8521,0.98315 3.9555,1.93973 6.2505,2.33029 2.2958,0.39038 6.06,0.75392 8.4712,0.38372 2.41191,-0.37013 3.77741,-1.0608 5.56521,-2.71401 1.7884,-1.65383 1.961,-4.02237 2.6591,-5.8941 -0.1587,1.80147 -0.3729,4.09395 -1.0417,5.40063 -2.0344,3.97254 -5.5586,5.16826 -9.75961,5.18133 -4.0322,0.0132 -9.0239,-0.91192 -12.7753,-2.46723 -2.9991,-1.243 -7.976401,-4.78226 -9.156401,-7.84067 -0.8066,-2.08966 -0.1621,-4.63611 -0.2467,-6.96324 4.1529,-2.76182 5.1749,-2.09755 10.088601,-2.90604 2.0555,-0.33862 3.4664,-1.08843 5.428,-1.26098 1.9617,-0.17195 4.4136,0.35108 6.2506,0.24668 1.837,-0.10431 3.1408,-0.58654 4.71531,-0.87726 -0.292,-2.76691 -0.022,-7.85735 -2.57691,-9.70479 -1.6499,-1.19317 -8.4157,-0.28081 -10.2258,0.10966 -4.0729,0.87814 -8.808801,3.30502 -12.747701,4.82498 3.7749,-2.63698 7.041201,-5.08123 11.569001,-6.4424 2.0412,-0.61383 6.1123,-1.38065 9.2113,-1.39819 z m 58.25611,17.81952 c -2.6101,0.16992 -3.2302,-0.15677 -5.3185,1.3159 1.1322,1.76156 2.2687,3.52961 3.3994,5.29107 -0.1,-3.47714 0.235,-4.19711 1.9191,-6.60697 z m -42.9862,10.88365 c -0.3321,3.15861 0.3087,6.62189 -1.2337,8.90972 -1.5423,2.28783 -4.2534,1.88402 -6.4973,2.54952 1.7458,-1.33099 3.806,-1.89306 5.154,-3.8928 1.3474,-1.99964 1.7461,-5.07263 2.577,-7.56644 z m 55.0759,3.86542 c -0.7265,0.62673 -1.271,1.28889 -2.4398,1.80937 -1.1675,0.5204 -2.7545,0.65454 -4.3041,1.04175 2.173,3.3825 4.4429,6.77884 6.5247,10.33529 2.0831,3.55582 3.9062,7.46143 5.8941,11.18517 -0.094,-2.13431 0.01,-4.42047 -0.3016,-6.41494 -0.3102,-1.99386 -1.215,-3.72331 -2.1109,-6.71663 -0.8944,-2.99333 -1.9944,-7.07842 -3.2624,-11.24001 z m -42.7118,24.20718 c 3.5683,0.0179 8.5641,0.56198 11.8979,2.08351 3.4133,1.55803 5.748,3.98438 8.7452,5.75699 2.9967,1.7734 5.1241,2.94605 7.9777,4.93464 4.3801,3.05245 6.9423,6.42897 9.979,8.44371 1.4602,0.96806 3.5167,0.80621 5.4554,1.39818 -1.5075,0.44759 -3.4727,0.95842 -5.0991,0.43865 -2.0279,-0.6484 -4.8693,-2.50908 -6.4424,-3.83806 -2.7801,-2.34827 -4.2308,-3.49232 -7.2649,-5.26361 -1.8113,-1.05535 -4.7808,-2.29309 -6.7714,-3.59136 -1.9919,-1.29819 -5.4608,-4.16237 -7.3746,-5.12649 -2.4328,-1.22468 -6.8043,-1.88877 -9.5128,-1.80937 -3.7317,0.10896 -9.1199,0.72462 -12.0076,3.34458 -2.8687,2.60417 -3.9644,4.89735 -3.3172,8.27922 1.0803,-1.24431 1.7963,-2.83041 2.8786,-3.75575 2.2418,-1.91508 4.8032,-2.0079 7.5938,-1.64488 3.1352,0.40819 4.7214,2.23247 5.7571,5.20869 -0.697,-0.5118 -1.9769,-1.62541 -2.9883,-1.97385 -2.3737,-0.81911 -4.1641,-0.58935 -6.3876,0.6032 -2.6251,1.40828 -1.9247,3.49373 -2.3028,5.81191 -0.1733,1.06895 -0.5618,1.94051 -0.8498,2.90587 -0.9872,-0.26117 -1.9124,-0.68524 -2.6593,-1.42557 0.031,1.08299 -0.1121,2.0443 0.1096,3.26239 0.2206,1.21738 0.8002,2.67093 1.2063,4.00253 -1.8277,-1.82849 -3.6991,-3.53345 -4.8798,-5.8941 -1.1819,-2.36213 -1.9634,-5.00025 -1.8367,-7.5939 0.2369,-4.8205 1.9582,-8.87603 6.2779,-11.24 2.234,-1.22203 5.6923,-2.80866 8.855,-3.1801 0.7594,-0.0891 1.7712,-0.14309 2.9608,-0.13703 z m 3.3719,18.5323 c 0.7883,-0.0285 1.5494,-8.7e-4 2.1932,0.0273 1.8882,0.0842 4.1847,0.56452 5.5103,1.42555 1.3264,0.86105 2.7441,1.57102 3.9478,2.7963 3.0031,3.05834 5.2549,6.72751 6.2505,10.96586 0.6346,2.70199 0.7285,6.17588 0.9594,9.34844 -0.9089,-2.93228 -1.5287,-5.98122 -2.8236,-8.60829 -2.0417,-4.14246 -5.5072,-8.19922 -9.8145,-10.06113 -1.4215,-0.61558 -2.3703,-0.49276 -3.1527,-0.3838 0.3499,0.58742 0.9339,1.08614 0.9596,1.94648 0.026,0.86043 -0.1586,2.52732 -1.6175,3.23484 -2.3521,1.14124 -4.9822,0.34494 -6.7988,-1.26099 -1.8317,-1.61856 -2.4393,-4.36388 -1.4804,-6.71663 0.857,-2.10281 3.5022,-2.62882 5.8667,-2.71401 z m -47.591911,7.10035 c 2.097301,0.008 4.726001,0.50162 6.908601,0.65795 -2.5096,0.64251 -5.0294,1.27651 -7.539101,1.91903 -0.2335,0.85384 -0.1124,1.8491 -0.6854,2.57698 -0.5735,0.72847 -1.6637,0.98219 -2.4946,1.48038 0.081,-2.24326 -0.9076,-4.54907 0.8224,-5.94893 0.6488,-0.52522 1.7299,-0.69024 2.9881,-0.68541 z" id="path4-4-0" style="fill:#ffffff"/></g></svg>