<?xml version="1.0" standalone="no"?><svg xmlns="http://www.w3.org/2000/svg" viewBox="0 0 1440 320"><path fill="#5000ca" fill-opacity="1" d="M0,160L30,149.3C60,139,120,117,180,106.7C240,96,300,96,360,128C420,160,480,224,540,261.3C600,299,660,309,720,309.3C780,309,840,299,900,293.3C960,288,1020,288,1080,266.7C1140,245,1200,203,1260,176C1320,149,1380,139,1410,133.3L1440,128L1440,0L1410,0C1380,0,1320,0,1260,0C1200,0,1140,0,1080,0C1020,0,960,0,900,0C840,0,780,0,720,0C660,0,600,0,540,0C480,0,420,0,360,0C300,0,240,0,180,0C120,0,60,0,30,0L0,0Z"></path></svg>